<?xml version="1.0" encoding="UTF-8" standalone="no"?>
<!DOCTYPE svg PUBLIC "-//W3C//DTD SVG 1.1//EN" "http://www.w3.org/Graphics/SVG/1.1/DTD/svg11.dtd">
<svg width="100%" height="100%" viewBox="0 0 512 512" version="1.1" xmlns="http://www.w3.org/2000/svg" xmlns:xlink="http://www.w3.org/1999/xlink" xml:space="preserve" xmlns:serif="http://www.serif.com/" style="fill-rule:evenodd;clip-rule:evenodd;stroke-linejoin:round;stroke-miterlimit:2;">
    <g id="Background">
        <path d="M130.994,144.991C161.808,117.626 203.604,140.856 224.429,163.565C242.083,182.815 237.237,190.141 246.491,190.673C254.328,191.123 306.54,194.123 343.475,205.581C415.71,227.99 404.628,252.611 407.701,259.412C408.447,261.062 409.017,260.254 414.499,260.512C497.229,264.412 502.839,378.78 394.353,412.006C373.961,418.251 371.354,413.559 367.122,420.259C315.534,501.934 223.224,503.206 170.457,489.661C70.849,464.093 43.296,357.879 37.955,300.454C33.056,247.788 38.905,243.605 39.975,241.762C56.971,212.506 114.784,201.842 120.407,200.204C126.212,198.513 106.157,172.341 130.994,144.991L73.971,282.014C35.892,237.581 130.977,222.265 132.046,221.036C132.888,220.067 129.971,215.988 129.458,215.551C127.252,213.669 62.562,228.624 53.261,251.402C49.215,261.311 46.828,465.391 201.544,479.017C403.692,496.82 391.329,256.163 391.285,255.525C389.262,226.137 295.334,207.578 249.492,206.825C246,206.768 247.419,213.164 249.503,213.488C259.326,215.015 259.336,213.817 278.55,216.021C392.241,229.06 387.688,268.954 367.209,284.121C315.504,322.415 128.981,325.476 73.971,282.014L130.994,144.991L224.91,238.214C225.332,238.008 225.895,238.459 226.317,238.253C227.797,237.531 235.457,223.861 230.608,206.472C217.252,158.583 164.036,139.921 146.912,152.961C145.14,154.31 155.365,166.647 167.883,177.027C183.886,190.296 219.408,195.549 224.91,238.214L130.994,144.991L157.031,224.979C160.66,228.441 189.609,256.069 216.379,245.197C216.757,245.043 221.138,243.264 220.106,241.714C206.071,220.646 183.206,209.58 179.387,207.732C132.777,185.173 146.633,147.429 138.875,160.739C131.822,172.839 130.752,197.608 157.031,224.979L130.994,144.991L439.991,366.985C472.264,333.315 468.077,280.726 413.503,276.46C405.34,275.822 406.931,279.401 406.811,285.497C406.75,288.649 408.283,287.407 411.5,287.479C454.799,288.446 456.746,330.036 437.028,354.124C418.191,377.137 387.49,385.653 385.456,386.414C383.81,387.031 379.279,397.954 379.586,398.458C381.473,401.557 382.128,398.699 385.572,397.748C418.383,388.694 436.463,370.529 439.991,366.985L130.994,144.991L421.993,346.949C423.925,344.772 439.027,327.749 431.064,311.723C428.353,306.266 416.64,303.154 408.498,303.38C404.11,303.502 405.052,305.694 403.245,317.459C397.128,357.283 389.398,367.763 393.475,366.378C408.54,361.263 420.103,348.961 421.993,346.949L130.994,144.991Z" style="fill-opacity:1;"/>
        <path d="M354.004,30.975C356.797,34.664 368.059,45.143 364.042,70.424C359.729,97.567 334.024,123.131 315.597,132.672C231.218,176.362 187.454,89.018 264.151,34.013C267.814,31.386 288.389,16.63 317.506,15.895C339.461,15.341 352.49,29.533 354.004,30.975L266.929,96.992C279.481,86.586 285.229,75.372 288.731,70.667C312.387,38.887 341.58,44.477 342.215,42.427C342.561,41.309 336.737,37.342 336.2,36.976C323.873,28.579 298.04,30.704 276.207,45.053C231.842,74.213 239.076,114.604 244.429,112.287C253.364,108.421 265.264,98.394 266.929,96.992L354.004,30.975L323.069,108.002C326.701,104.519 336.488,96.789 344.252,80.384C351.861,64.308 348.16,50.191 346.442,48.559C345.096,47.282 328.743,56.408 315.734,69.726C299.32,86.532 292.04,116.125 248.455,117.253C240.397,117.461 274.373,147.274 323.069,108.002L354.004,30.975Z" style="fill-opacity:1;"/>
        <path d="M129.987,415.02C159.163,443.454 171.223,435.274 169.127,447.436C167.42,457.34 157.437,453.101 156.426,452.672C100.086,428.748 80.857,362.527 81.274,359.471C82.406,351.165 93.769,350.285 96.551,357.476C105.343,380.205 110.407,393.122 129.987,415.02Z" style="fill-opacity:1;"/>
    </g>
</svg>
